
<svg width="1024px" height="1024px" viewBox="0 0 1024 1024" version="1.1" xmlns="http://www.w3.org/2000/svg" xmlns:xlink="http://www.w3.org/1999/xlink">
    <defs>
        <path d="M1024,318.915189 C1024,306.75896 1024,294.601491 1023.93028,282.444021 C1023.86939,272.202815 1023.75133,261.964095 1023.47297,251.727861 C1022.8715,229.417417 1021.55547,206.915596 1017.5875,184.853695 C1013.5636,162.473661 1006.99216,141.644533 996.636662,121.310005 C986.456387,101.323437 973.158156,83.0344161 957.291244,67.1786292 C941.428061,51.3228422 923.134138,38.0332596 903.140189,27.8591607 C882.784611,17.5011401 861.933193,10.9321544 839.528388,6.90948941 C817.464085,2.94771742 794.956135,1.6341688 772.645776,1.03145256 C762.402124,0.754327351 752.158471,0.637512242 741.912334,0.574133832 C729.748695,0.499570996 717.585058,0.505784566 705.421419,0.505784566 L564.189999,0 L458.559713,0 L319.82738,0.505784566 C307.640131,0.505784566 295.452881,0.499570996 283.265632,0.574133832 C272.998368,0.637512242 262.736075,0.754327351 252.472539,1.03145256 C230.109986,1.6341688 207.551085,2.94896014 185.434589,6.91570298 C162.999958,10.9371252 142.117473,17.5036256 121.734555,27.8541899 C101.698354,38.0295315 83.3646645,51.3203568 67.4679277,67.1786292 C51.5736765,83.0331734 38.2505907,101.318466 28.0516758,121.301306 C17.6675974,141.645776 11.0837238,162.487331 7.04988957,184.879792 C3.07819081,206.932994 1.76216171,229.427359 1.15696231,251.727861 C0.881080857,261.965338 0.76178077,272.204058 0.699645307,282.444021 C0.625082752,294.602733 0,309.705436 0,321.862906 L0,458.673281 L0,565.434834 L0.631296298,705.151918 C0.631296298,717.325543 0.626325461,729.49917 0.699645307,741.672795 C0.76178077,751.92767 0.881080857,762.18006 1.15820502,772.431207 C1.76216171,794.770233 3.08067623,817.304365 7.05610311,839.39609 C11.0886946,861.80595 17.6713255,882.664903 28.046705,903.025527 C38.2468625,923.040679 51.5724338,941.35331 67.4679277,957.231467 C83.3634218,973.109622 101.69214,986.416603 121.724614,996.605614 C142.119957,1006.9773 163.012386,1013.55499 185.460685,1017.58263 C207.567241,1021.55061 230.118685,1022.86664 252.472539,1023.46936 C262.736075,1023.74649 272.99961,1023.86454 283.266874,1023.92668 C295.454123,1024 307.640131,1024 319.82738,1024 L459.813606,1024 L565.706105,1024 L705.421419,1024 C717.585058,1024 729.748695,1024 741.912334,1023.92668 C752.158471,1023.86454 762.402124,1023.74649 772.645776,1023.46936 C794.964834,1022.8654 817.48024,1021.54813 839.554484,1017.57765 C861.94562,1013.55002 882.787097,1006.97482 903.13149,996.609342 C923.129168,986.421574 941.426818,973.112107 957.291244,957.231467 C973.155671,941.355796 986.452659,923.045649 996.632934,903.034226 C1006.99464,882.66366 1013.56609,861.794765 1017.59247,839.369993 C1021.55671,817.286967 1022.8715,794.761534 1023.47421,772.431207 C1023.75133,762.178817 1023.86939,751.926427 1023.93028,741.672795 C1024,729.49917 1024,717.325543 1024,705.151918 C1024,705.151918 1024,567.901621 1024,565.434834 L1024,458.561438 C1024,456.739619 1024,318.915189 1024,318.915189" id="path-35xj6zd-lc-1"></path>
    </defs>
    <g id="页面-1" stroke="none" stroke-width="1" fill="none" fill-rule="evenodd">
        <g id="icon">
            <g id="Artwork">
                <g id="Mask">
                    <g id="path-1-vfehiinn-1-link" fill="#000000" fill-rule="nonzero">
                        <path d="M1024,318.915189 C1024,306.75896 1024,294.601491 1023.93028,282.444021 C1023.86939,272.202815 1023.75133,261.964095 1023.47297,251.727861 C1022.8715,229.417417 1021.55547,206.915596 1017.5875,184.853695 C1013.5636,162.473661 1006.99216,141.644533 996.636662,121.310005 C986.456387,101.323437 973.158156,83.0344161 957.291244,67.1786292 C941.428061,51.3228422 923.134138,38.0332596 903.140189,27.8591607 C882.784611,17.5011401 861.933193,10.9321544 839.528388,6.90948941 C817.464085,2.94771742 794.956135,1.6341688 772.645776,1.03145256 C762.402124,0.754327351 752.158471,0.637512242 741.912334,0.574133832 C729.748695,0.499570996 717.585058,0.505784566 705.421419,0.505784566 L564.189999,0 L458.559713,0 L319.82738,0.505784566 C307.640131,0.505784566 295.452881,0.499570996 283.265632,0.574133832 C272.998368,0.637512242 262.736075,0.754327351 252.472539,1.03145256 C230.109986,1.6341688 207.551085,2.94896014 185.434589,6.91570298 C162.999958,10.9371252 142.117473,17.5036256 121.734555,27.8541899 C101.698354,38.0295315 83.3646645,51.3203568 67.4679277,67.1786292 C51.5736765,83.0331734 38.2505907,101.318466 28.0516758,121.301306 C17.6675974,141.645776 11.0837238,162.487331 7.04988957,184.879792 C3.07819081,206.932994 1.76216171,229.427359 1.15696231,251.727861 C0.881080857,261.965338 0.76178077,272.204058 0.699645307,282.444021 C0.625082752,294.602733 0,309.705436 0,321.862906 L0,458.673281 L0,565.434834 L0.631296298,705.151918 C0.631296298,717.325543 0.626325461,729.49917 0.699645307,741.672795 C0.76178077,751.92767 0.881080857,762.18006 1.15820502,772.431207 C1.76216171,794.770233 3.08067623,817.304365 7.05610311,839.39609 C11.0886946,861.80595 17.6713255,882.664903 28.046705,903.025527 C38.2468625,923.040679 51.5724338,941.35331 67.4679277,957.231467 C83.3634218,973.109622 101.69214,986.416603 121.724614,996.605614 C142.119957,1006.9773 163.012386,1013.55499 185.460685,1017.58263 C207.567241,1021.55061 230.118685,1022.86664 252.472539,1023.46936 C262.736075,1023.74649 272.99961,1023.86454 283.266874,1023.92668 C295.454123,1024 307.640131,1024 319.82738,1024 L459.813606,1024 L565.706105,1024 L705.421419,1024 C717.585058,1024 729.748695,1024 741.912334,1023.92668 C752.158471,1023.86454 762.402124,1023.74649 772.645776,1023.46936 C794.964834,1022.8654 817.48024,1021.54813 839.554484,1017.57765 C861.94562,1013.55002 882.787097,1006.97482 903.13149,996.609342 C923.129168,986.421574 941.426818,973.112107 957.291244,957.231467 C973.155671,941.355796 986.452659,923.045649 996.632934,903.034226 C1006.99464,882.66366 1013.56609,861.794765 1017.59247,839.369993 C1021.55671,817.286967 1022.8715,794.761534 1023.47421,772.431207 C1023.75133,762.178817 1023.86939,751.926427 1023.93028,741.672795 C1024,729.49917 1024,717.325543 1024,705.151918 C1024,705.151918 1024,567.901621 1024,565.434834 L1024,458.561438 C1024,456.739619 1024,318.915189 1024,318.915189" id="path-1-vfehiinn-1"></path>
                    </g>
                    <g id="path-1-vfehiinn-1-link" fill="#148EFF">
                        <path d="M1024,318.915189 C1024,306.75896 1024,294.601491 1023.93028,282.444021 C1023.86939,272.202815 1023.75133,261.964095 1023.47297,251.727861 C1022.8715,229.417417 1021.55547,206.915596 1017.5875,184.853695 C1013.5636,162.473661 1006.99216,141.644533 996.636662,121.310005 C986.456387,101.323437 973.158156,83.0344161 957.291244,67.1786292 C941.428061,51.3228422 923.134138,38.0332596 903.140189,27.8591607 C882.784611,17.5011401 861.933193,10.9321544 839.528388,6.90948941 C817.464085,2.94771742 794.956135,1.6341688 772.645776,1.03145256 C762.402124,0.754327351 752.158471,0.637512242 741.912334,0.574133832 C729.748695,0.499570996 717.585058,0.505784566 705.421419,0.505784566 L564.189999,0 L458.559713,0 L319.82738,0.505784566 C307.640131,0.505784566 295.452881,0.499570996 283.265632,0.574133832 C272.998368,0.637512242 262.736075,0.754327351 252.472539,1.03145256 C230.109986,1.6341688 207.551085,2.94896014 185.434589,6.91570298 C162.999958,10.9371252 142.117473,17.5036256 121.734555,27.8541899 C101.698354,38.0295315 83.3646645,51.3203568 67.4679277,67.1786292 C51.5736765,83.0331734 38.2505907,101.318466 28.0516758,121.301306 C17.6675974,141.645776 11.0837238,162.487331 7.04988957,184.879792 C3.07819081,206.932994 1.76216171,229.427359 1.15696231,251.727861 C0.881080857,261.965338 0.76178077,272.204058 0.699645307,282.444021 C0.625082752,294.602733 0,309.705436 0,321.862906 L0,458.673281 L0,565.434834 L0.631296298,705.151918 C0.631296298,717.325543 0.626325461,729.49917 0.699645307,741.672795 C0.76178077,751.92767 0.881080857,762.18006 1.15820502,772.431207 C1.76216171,794.770233 3.08067623,817.304365 7.05610311,839.39609 C11.0886946,861.80595 17.6713255,882.664903 28.046705,903.025527 C38.2468625,923.040679 51.5724338,941.35331 67.4679277,957.231467 C83.3634218,973.109622 101.69214,986.416603 121.724614,996.605614 C142.119957,1006.9773 163.012386,1013.55499 185.460685,1017.58263 C207.567241,1021.55061 230.118685,1022.86664 252.472539,1023.46936 C262.736075,1023.74649 272.99961,1023.86454 283.266874,1023.92668 C295.454123,1024 307.640131,1024 319.82738,1024 L459.813606,1024 L565.706105,1024 L705.421419,1024 C717.585058,1024 729.748695,1024 741.912334,1023.92668 C752.158471,1023.86454 762.402124,1023.74649 772.645776,1023.46936 C794.964834,1022.8654 817.48024,1021.54813 839.554484,1017.57765 C861.94562,1013.55002 882.787097,1006.97482 903.13149,996.609342 C923.129168,986.421574 941.426818,973.112107 957.291244,957.231467 C973.155671,941.355796 986.452659,923.045649 996.632934,903.034226 C1006.99464,882.66366 1013.56609,861.794765 1017.59247,839.369993 C1021.55671,817.286967 1022.8715,794.761534 1023.47421,772.431207 C1023.75133,762.178817 1023.86939,751.926427 1023.93028,741.672795 C1024,729.49917 1024,717.325543 1024,705.151918 C1024,705.151918 1024,567.901621 1024,565.434834 L1024,458.561438 C1024,456.739619 1024,318.915189 1024,318.915189" id="path-1-vfehiinn-1"></path>
                    </g>
                </g>
                <g id="Icon-Center-Image-Artwork-Clipped">
                    <mask id="mask-35xj6zd-lc-2" fill="white">
                        <use xlink:href="#path-35xj6zd-lc-1"></use>
                    </mask>
                    <g id="path-1-vfehiinn-1"></g>
                </g>
            </g>
            <g id="飞鱼CRM_feiyu" transform="translate(511.773474, 485.602302) rotate(-127.000000) translate(-511.773474, -485.602302) translate(100.057262, 261.912982)" fill="#FFFFFF" fill-opacity="0.85" fill-rule="nonzero">
                <path d="M110.012184,223.72248 C60.0268753,159.037817 22.1100902,83.1151801 5.50812662e-22,-4.87046034e-23 C44.5227673,64.541978 98.5909335,120.948885 159.968926,166.801101 C261.867455,64.501785 398.484556,1.91117889 548.66169,1.85490863 C647.134033,1.87098584 734.658738,51.457135 791.141023,128.696093 C794.326644,132.7576 797.275458,136.997965 799.996861,141.415179 C812.622822,161.72673 820.6987,185.577278 822.679612,211.318908 C799.35034,200.308026 775.434689,190.691842 750.942055,182.532656 C692.781446,163.125448 631.314933,151.885466 567.649496,150.036586 C560.943717,149.833611 554.927684,149.747196 548.89286,149.747196 C478.427672,149.747196 410.557966,161.214269 346.670757,182.518589 C316.677053,192.516606 287.559161,204.681028 259.486227,218.853093 C256.325038,220.438708 253.186402,222.060498 250.044008,223.702383 C253.201438,225.344268 256.387058,226.986154 259.580197,228.591866 C287.611785,242.717708 316.692089,254.882131 346.650083,264.860052 C410.557966,286.164372 478.470898,297.651542 548.855271,297.651542 C554.908891,297.651542 560.943717,297.571155 566.963507,297.388277 C631.328089,295.517291 692.80024,284.279318 750.960849,264.912303 C775.447845,256.73302 799.331545,247.134924 822.564967,236.166243 C820.6987,261.785286 812.622822,285.615737 800.053244,305.866998 C797.232231,310.430918 794.170651,314.80392 790.915492,318.992034 C734.468916,396.108404 647.021267,445.588041 548.855271,445.614167 C398.465762,445.553877 261.811072,382.943175 159.906904,280.617733 C98.5672528,326.447842 44.5227673,382.85676 0.0236807235,447.378641 C22.1480545,364.287576 60.0456695,288.381017 110.012184,223.72248 Z" id="路径"></path>
                <path d="M574.895681,286.437702 C603.748715,277.15673 625.028204,261.603857 625.028204,223.732696 C625.028204,185.839556 603.748715,164.542273 574.878704,155.243317 C574.673096,155.181378 574.463715,155.113445 574.276971,155.041514 C568.914185,153.383127 563.304291,152.493992 557.528403,152.493992 C563.472173,152.493992 569.398967,152.589899 575.310669,152.793701 C575.329532,152.793701 575.780362,152.793701 576.004833,152.815679 C638.724719,154.861689 698.330302,167.545351 756.575856,187.360077 C780.703677,196.381302 800.562774,202.954907 823.432424,215.051141 C823.432424,219.800521 823.432424,218.367914 823.432424,222.975433 C823.432424,227.61492 823.432424,225.115351 822.909916,229.788805 C797.948344,240.848047 780.716881,247.267803 756.592833,256.311006 C698.609476,273.584204 638.737922,286.831319 576.042559,288.871335 C575.799224,288.901305 575.552118,288.901305 575.329532,288.901305 C569.398967,289.103109 563.45331,289.193021 557.490677,289.193021 C563.287315,289.193021 568.914185,288.297892 574.295834,286.645499 C574.486352,286.579563 574.691959,286.51163 574.895681,286.437702 Z" id="路径"></path>
            </g>
        </g>
    </g>
</svg>
